<?xml version="1.0" standalone="no"?>
<!DOCTYPE svg PUBLIC "-//W3C//DTD SVG 20010904//EN"
 "http://www.w3.org/TR/2001/REC-SVG-20010904/DTD/svg10.dtd">
<svg version="1.0" xmlns="http://www.w3.org/2000/svg"
 width="700.000000pt" height="700.000000pt" viewBox="0 0 700.000000 700.000000"
 preserveAspectRatio="xMidYMid meet">
<metadata>
Created by potrace 1.14, written by Peter Selinger 2001-2017
</metadata>
<g transform="translate(0.000000,700.000000) scale(0.100000,-0.100000)"
fill="#000000" stroke="none">
<path d="M4133 6960 c-75 -14 -176 -54 -236 -94 -204 -138 -348 -373 -466
-761 -12 -39 -23 -79 -25 -90 -3 -11 -16 -69 -30 -130 -14 -60 -28 -132 -32
-160 -3 -27 -8 -53 -9 -56 -7 -10 -41 -287 -50 -406 -12 -151 -14 -189 -14
-260 l-1 -72 -37 -6 c-21 -4 -104 -23 -186 -42 -81 -20 -149 -34 -151 -32 -2
2 -6 20 -9 39 -6 47 -40 178 -84 325 -73 246 -195 545 -312 760 -47 88 -183
302 -200 315 -3 3 -24 27 -46 55 -130 163 -312 292 -465 331 -179 46 -369 8
-540 -107 -142 -95 -225 -218 -271 -398 -39 -149 -31 -433 15 -635 9 -35 17
-75 20 -87 6 -33 65 -240 75 -264 5 -11 23 -60 41 -110 31 -84 61 -162 97
-245 8 -19 19 -44 23 -55 33 -78 183 -379 242 -482 l71 -125 -64 -57 c-121
-107 -278 -281 -376 -416 -55 -77 -163 -241 -163 -249 0 -3 -15 -31 -34 -63
-73 -125 -167 -366 -207 -533 -43 -178 -57 -313 -54 -520 2 -107 6 -213 10
-235 112 -704 465 -1285 995 -1637 245 -163 575 -294 885 -354 22 -4 47 -9 55
-10 8 -2 38 -6 65 -9 28 -3 57 -8 65 -10 103 -27 689 -27 890 0 14 2 48 6 75
10 103 13 411 71 425 80 4 2 19 6 34 9 15 3 91 23 170 45 346 99 674 238 948
404 99 61 132 83 247 169 156 117 357 311 466 448 33 41 63 77 66 80 3 3 42
61 87 129 133 201 250 461 308 685 29 110 52 242 61 350 12 144 7 409 -11 506
-2 14 -7 43 -10 65 -21 155 -88 384 -161 556 -59 138 -177 346 -247 434 -142
180 -258 300 -393 409 -189 153 -382 266 -630 371 -16 7 -68 25 -115 40 -47
16 -88 31 -92 34 -4 4 2 40 12 81 23 87 86 395 94 460 3 25 8 54 10 65 2 11 7
49 10 85 4 36 9 81 12 100 6 45 7 375 1 420 -3 19 -8 60 -12 90 -38 308 -188
573 -390 686 -113 62 -323 97 -452 74z"/>
</g>
</svg>
